<?xml version="1.0" standalone="no"?>
<!DOCTYPE svg PUBLIC "-//W3C//DTD SVG 20010904//EN"
 "http://www.w3.org/TR/2001/REC-SVG-20010904/DTD/svg10.dtd">
<svg version="1.0" xmlns="http://www.w3.org/2000/svg"
 width="384.000000pt" height="94.000000pt" viewBox="0 0 384.000000 94.000000"
 preserveAspectRatio="xMidYMid meet">

<g transform="translate(0.000000,94.000000) scale(0.100000,-0.100000)"
fill="#000000" stroke="none">
<path d="M30 498 l0 -258 60 0 59 0 3 76 3 75 67 4 c136 8 200 81 185 212 -5
49 -27 85 -71 117 -24 18 -46 22 -167 26 l-139 5 0 -257z m250 122 c27 -27 25
-66 -5 -95 -19 -20 -34 -25 -75 -25 l-50 0 0 70 0 70 55 0 c42 0 60 -5 75 -20z"/>
<path d="M1577 746 c-120 -33 -196 -147 -184 -277 8 -96 68 -179 156 -217 56
-24 156 -21 216 6 63 29 91 55 121 114 36 72 34 78 -33 78 -55 0 -59 -2 -74
-33 -33 -69 -146 -96 -208 -50 -48 37 -64 68 -64 128 0 60 16 91 64 128 62 46
175 19 208 -50 15 -31 19 -33 74 -33 63 0 67 6 43 64 -47 114 -191 178 -319
142z"/>
<path d="M3430 495 l0 -255 30 0 30 0 0 108 c0 173 25 221 119 230 46 4 53 2
81 -26 l30 -30 0 -141 0 -141 35 0 35 0 0 137 c0 119 -3 142 -21 181 -17 35
-32 49 -67 64 -58 26 -139 21 -182 -11 l-30 -22 0 81 0 80 -30 0 -30 0 0 -255z"/>
<path d="M576 615 c-34 -23 -36 -23 -36 -5 0 16 -7 20 -32 20 l-33 0 0 -195 0
-195 33 0 32 0 0 115 c0 78 5 127 14 150 18 41 69 75 114 75 29 0 32 3 32 30
0 29 -2 30 -44 30 -29 0 -55 -8 -80 -25z"/>
<path d="M865 621 c-52 -23 -102 -81 -111 -126 -3 -20 -4 -61 -2 -91 8 -93 79
-160 180 -171 99 -10 193 38 224 114 17 39 18 131 3 170 -38 101 -186 154
-294 104z m164 -59 c53 -26 75 -64 75 -125 0 -83 -61 -147 -141 -147 -47 1
-110 35 -129 72 -52 100 16 218 126 218 19 0 50 -8 69 -18z"/>
<path d="M2095 628 c-124 -44 -175 -197 -101 -308 59 -89 198 -116 300 -56 53
31 74 62 88 130 29 137 -68 248 -213 245 -24 0 -57 -5 -74 -11z m153 -68 c98
-60 94 -201 -8 -252 -68 -34 -144 -13 -188 52 -19 29 -23 45 -20 87 9 107 125
168 216 113z"/>
<path d="M2585 627 c-57 -23 -74 -38 -102 -85 -23 -38 -28 -58 -27 -107 1 -70
18 -109 68 -153 65 -57 179 -67 252 -22 l34 22 0 -21 c0 -17 6 -21 35 -21 l35
0 0 198 0 197 -32 -1 c-26 -1 -34 -6 -36 -23 l-3 -21 -32 22 c-37 27 -144 35
-192 15z m151 -63 c101 -48 98 -203 -6 -257 -43 -22 -111 -18 -149 10 -37 28
-65 101 -57 146 8 40 48 94 80 107 34 14 96 11 132 -6z"/>
<path d="M3065 621 c-78 -36 -115 -95 -115 -184 1 -146 121 -235 265 -196 50
14 100 51 120 89 23 45 19 60 -14 60 -23 0 -34 -8 -50 -34 -38 -61 -111 -81
-178 -49 -47 22 -73 66 -73 126 0 59 21 102 63 127 62 38 162 15 189 -45 9
-19 19 -25 45 -25 37 0 40 8 19 48 -46 89 -174 128 -271 83z"/>
</g>
</svg>
